<svg width="15" height="9" viewBox="0 0 15 9" fill="none" xmlns="http://www.w3.org/2000/svg">
<path d="M1.25781 6.51562C1.08594 6.67969 0.992188 6.89844 0.992188 7.14844C0.992188 7.65625 1.39062 8.05469 1.89844 8.05469C2.14844 8.05469 2.38281 7.96094 2.55469 7.78125L7.91406 2.28906L13.2734 7.78125C13.4453 7.96094 13.6797 8.05469 13.9297 8.05469C14.4297 8.05469 14.8281 7.65625 14.8281 7.14844C14.8281 6.89844 14.7422 6.67969 14.5703 6.51562L8.61719 0.421875C8.42188 0.21875 8.17969 0.109375 7.91406 0.109375C7.64844 0.109375 7.41406 0.210938 7.21094 0.421875L1.25781 6.51562Z" fill="black"/>
</svg>
